
        <svg xmlns="http://www.w3.org/2000/svg" xmlns:xlink="http://www.w3.org/1999/xlink" version="1.1" width="3162.08104052026" 
        height="687.3436718359179" viewBox="0 0 3162.08104052026 687.3436718359179">
			
			<g transform="scale(8.104052026013006) translate(10, 10)">
				<defs id="SvgjsDefs1046"></defs><g id="SvgjsG1047" featureKey="symbolFeature-0" transform="matrix(0.8309591642924976,0,0,0.8309591642924976,202.33855650522318,-297.8988603988604)" fill="#6366f1"><path xmlns="http://www.w3.org/2000/svg" d="M-167.5,390.5c-1.1,0-2-0.9-2-2c0-1.1,0.9-2,2-2c1.1,0,2,0.9,2,2C-165.5,389.6-166.4,390.5-167.5,390.5z   M-177.5,428.5c-2.2,0-4-1.8-4-4s1.8-4,4-4c2.2,0,4,1.8,4,4S-175.3,428.5-177.5,428.5z M-177.5,410.5c-2.2,0-4-1.8-4-4s1.8-4,4-4  c2.2,0,4,1.8,4,4S-175.3,410.5-177.5,410.5z M-177.5,392.5c-2.2,0-4-1.8-4-4c0-2.2,1.8-4,4-4c2.2,0,4,1.8,4,4  C-173.5,390.7-175.3,392.5-177.5,392.5z M-177.5,374.5c-2.2,0-4-1.8-4-4c0-2.2,1.8-4,4-4c2.2,0,4,1.8,4,4  C-173.5,372.7-175.3,374.5-177.5,374.5z M-194.5,414.5c-3.9,0-7-3.1-7-7c0-3.9,3.1-7,7-7c3.9,0,7,3.1,7,7  C-187.5,411.4-190.6,414.5-194.5,414.5z M-194.5,394.5c-3.9,0-7-3.1-7-7c0-3.9,3.1-7,7-7c3.9,0,7,3.1,7,7  C-187.5,391.4-190.6,394.5-194.5,394.5z M-195.5,374.5c-2.2,0-4-1.8-4-4c0-2.2,1.8-4,4-4c2.2,0,4,1.8,4,4  C-191.5,372.7-193.3,374.5-195.5,374.5z M-195.5,362.5c-1.1,0-2-0.9-2-2c0-1.1,0.9-2,2-2c1.1,0,2,0.9,2,2  C-193.5,361.6-194.4,362.5-195.5,362.5z M-214.5,414.5c-3.9,0-7-3.1-7-7c0-3.9,3.1-7,7-7s7,3.1,7,7  C-207.5,411.4-210.6,414.5-214.5,414.5z M-214.5,394.5c-3.9,0-7-3.1-7-7c0-3.9,3.1-7,7-7s7,3.1,7,7  C-207.5,391.4-210.6,394.5-214.5,394.5z M-213.5,374.5c-2.2,0-4-1.8-4-4c0-2.2,1.8-4,4-4c2.2,0,4,1.8,4,4  C-209.5,372.7-211.3,374.5-213.5,374.5z M-213.5,362.5c-1.1,0-2-0.9-2-2c0-1.1,0.9-2,2-2c1.1,0,2,0.9,2,2  C-211.5,361.6-212.4,362.5-213.5,362.5z M-231.5,374.5c-2.2,0-4-1.8-4-4c0-2.2,1.8-4,4-4c2.2,0,4,1.8,4,4  C-227.5,372.7-229.3,374.5-231.5,374.5z M-231.5,384.5c2.2,0,4,1.8,4,4c0,2.2-1.8,4-4,4c-2.2,0-4-1.8-4-4  C-235.5,386.3-233.7,384.5-231.5,384.5z M-241.5,408.5c-1.1,0-2-0.9-2-2c0-1.1,0.9-2,2-2c1.1,0,2,0.9,2,2  C-239.5,407.6-240.4,408.5-241.5,408.5z M-241.5,390.5c-1.1,0-2-0.9-2-2c0-1.1,0.9-2,2-2c1.1,0,2,0.9,2,2  C-239.5,389.6-240.4,390.5-241.5,390.5z M-231.5,402.5c2.2,0,4,1.8,4,4s-1.8,4-4,4c-2.2,0-4-1.8-4-4S-233.7,402.5-231.5,402.5z   M-231.5,420.5c2.2,0,4,1.8,4,4s-1.8,4-4,4c-2.2,0-4-1.8-4-4S-233.7,420.5-231.5,420.5z M-213.5,420.5c2.2,0,4,1.8,4,4  c0,2.2-1.8,4-4,4c-2.2,0-4-1.8-4-4C-217.5,422.3-215.7,420.5-213.5,420.5z M-213.5,432.5c1.1,0,2,0.9,2,2c0,1.1-0.9,2-2,2  c-1.1,0-2-0.9-2-2C-215.5,433.4-214.6,432.5-213.5,432.5z M-195.5,420.5c2.2,0,4,1.8,4,4c0,2.2-1.8,4-4,4c-2.2,0-4-1.8-4-4  C-199.5,422.3-197.7,420.5-195.5,420.5z M-195.5,432.5c1.1,0,2,0.9,2,2c0,1.1-0.9,2-2,2c-1.1,0-2-0.9-2-2  C-197.5,433.4-196.6,432.5-195.5,432.5z M-167.5,404.5c1.1,0,2,0.9,2,2c0,1.1-0.9,2-2,2c-1.1,0-2-0.9-2-2  C-169.5,405.4-168.6,404.5-167.5,404.5z" style="fill-rule: evenodd; clip-rule: evenodd"></path></g><g id="SvgjsG1048" featureKey="nameFeature-0" transform="matrix(2.1197056594069235,0,0,2.1197056594069235,85.97506518956475,5.2992237897495365)" fill="#6366f1"><path d="M12.1 20 l-1.18 -2.64 l-7.32 0 l-1.2 2.64 l-2.86 0 l6.28 -14 l2.88 0 l6.28 14 l-2.88 0 z M9.86 14.9 l-2.6 -5.96 l-2.6 5.96 l5.2 0 z M18.6 20 l-2.62 0 l0 -14 l2.62 0 l0 14 z M27.76 20 l-2.64 0 l0 -13.98 l10.06 0 l0 2.54 l-7.42 0 l0 3.82 l7.02 0 l0 2.44 l-7.02 0 l0 5.18 z M44.00000000000001 5.720000000000001 c4.82 0 7.22 3.7 7.18 7.36 c-0.04 3.62 -2.26 7.24 -7.18 7.24 s-7.2 -3.54 -7.2 -7.22 s2.36 -7.38 7.2 -7.38 z M44.00000000000001 8.12 c-3.3 0 -4.66 2.66 -4.6 5.02 c0.06 2.3 1.3 4.76 4.6 4.76 s4.54 -2.48 4.58 -4.78 c0.04 -2.36 -1.28 -5 -4.58 -5 z M62.78000000000001 6.02 l2.62 0 l0 8.02 c0 4.14 -2.54 6.26 -6.06 6.26 c-3.36 0 -6.22 -2.04 -6.22 -6.26 l0 -8.02 l2.62 0 l0 8.02 c0 2.52 1.44 3.86 3.62 3.86 s3.42 -1.46 3.42 -3.86 l0 -8.02 z M77.18 14.68 l0 -8.7 l2.64 0 l0 14.02 l-1.64 0 l0 0.02 l-7.36 -9.46 l0 9.44 l-2.64 0 l0 -14 l2.14 0 z M87.56 6 c4.8 0 6.94 3.42 7 6.88 c0.06 3.54 -2.1 7.12 -7 7.12 l-5.5 0 l0 -14 l5.5 0 z M84.68 8.5 l0 8.96 l2.88 0 c3.18 0 4.44 -2.32 4.38 -4.6 c-0.06 -2.18 -1.34 -4.36 -4.38 -4.36 l-2.88 0 z M106.74000000000001 17.4 l0 2.6 l-10.48 0 l0 -14 l10.48 0 l0 2.56 l-7.86 0 l0 3.22 l7.58 0 l0 2.46 l-7.58 0 l0 3.16 l7.86 0 z M121.20000000000002 19.82 l0 0.18 l-3.14 0 l-4.08 -4.68 l-2.54 0 l0 4.68 l-2.64 0 l0 -14.02 c2.22 0 4.44 0.02 6.66 0.02 c3.3 0.02 5.04 2.22 5.04 4.64 c0 1.92 -0.88 3.86 -3.54 4.4 z M115.46000000000001 8.46 l-4.02 0 l0 4.48 l4.02 0 c1.68 0 2.4 -1.12 2.4 -2.24 s-0.74 -2.24 -2.4 -2.24 z M133.64000000000001 8.3 l-2.1 1.08 c-0.48 -0.8 -1.8 -1.56 -3.32 -1.56 c-1.96 0 -2.9 0.82 -2.9 1.86 c0 1.22 1.44 1.56 3.12 1.76 c2.92 0.36 5.64 1.12 5.64 4.46 c0 3.12 -2.76 4.46 -5.88 4.46 c-2.86 0 -5.06 -0.88 -6.1 -3.44 l2.2 -1.14 c0.62 1.54 2.24 2.22 3.94 2.22 c1.66 0 3.22 -0.58 3.22 -2.1 c0 -1.32 -1.38 -1.86 -3.24 -2.06 c-2.86 -0.34 -5.5 -1.1 -5.5 -4.24 c0 -2.88 2.84 -4.06 5.42 -4.08 c2.18 0 4.44 0.62 5.5 2.78 z"></path></g>
			</g>
		</svg>
	